<svg width="69" height="42" viewBox="0 0 69 42" fill="none" xmlns="http://www.w3.org/2000/svg"><path d="M7.702 1.009v39.985H3.92a1.43 1.43 0 01-.965-.377 25.706 25.706 0 01-1.576-1.568A1.414 1.414 0 011 38.09V3.914c0-.356.136-.7.38-.96a26.085 26.085 0 011.575-1.569c.263-.24.607-.375.965-.376h3.782zm26.8 5.09a20.116 20.116 0 00-4.19 5.222 13.37 13.37 0 00-5.863-3.229v0a13.466 13.466 0 00-6.054-.148 13.43 13.43 0 00-5.502 2.518 13.34 13.34 0 00-3.824 4.67 13.268 13.268 0 00-1.366 5.87V6.098a20.173 20.173 0 019.506-4.71 20.234 20.234 0 0111.436 1.076A20.098 20.098 0 0134.502 6.1v0z" fill="#fff" stroke="#fff" stroke-miterlimit="10"/><path d="M28.661 39.554l-.859.302a20.186 20.186 0 01-10.595.765 20.125 20.125 0 01-9.504-4.718v0-14.902a13.23 13.23 0 001.791 6.664 13.406 13.406 0 0011.607 6.664h3.584a26.634 26.634 0 003.113 4.301l.863.924z" fill="#fff" stroke="#fff" stroke-miterlimit="10"/><path d="M68 21.001v17.088c0 .356-.136.699-.38.96a25.697 25.697 0 01-1.575 1.568 1.435 1.435 0 01-.965.376h-3.782V21.001a13.23 13.23 0 00-1.792-6.664 13.457 13.457 0 00-4.908-4.882 13.5 13.5 0 00-10.044-1.362v0a13.37 13.37 0 00-3.352 1.362 13.36 13.36 0 00-4.906 4.88A13.27 13.27 0 0034.502 21v19.992h-3.783c-.356 0-.7-.133-.962-.373a24.25 24.25 0 01-1.115-1.083l-.843-.907V21.001a19.935 19.935 0 013.435-11.175 20.094 20.094 0 019.967-7.68 20.193 20.193 0 019.463-.957 20.154 20.154 0 018.846 3.48 20.018 20.018 0 016.245 7.137A19.9 19.9 0 0168 21.001z" fill="#fff" stroke="#fff" stroke-miterlimit="10"/><path d="M54.6 9.455v11.546a6.647 6.647 0 00-1.962-4.712 6.718 6.718 0 00-4.737-1.952s-.836.033-.832.052a6.713 6.713 0 00-4.193 2.201 6.647 6.647 0 00-1.679 4.411 19.809 19.809 0 00-2.51-9.68 13.372 13.372 0 015.867-3.229A13.5 13.5 0 0154.6 9.456v0z" fill="#fff" stroke="#fff" stroke-miterlimit="10"/></svg>